<svg id="Layer_1" data-name="Layer 1" xmlns="http://www.w3.org/2000/svg" xmlns:xlink="http://www.w3.org/1999/xlink" viewBox="0 0 500 498.17">
  <defs>
    <style>.cls-1{fill:none;}.cls-2{clip-path:url(#clip-path);}.cls-3{fill:#fff;}
    </style>
    <clipPath id="clip-path" transform="translate(-100 -100)">
      <rect class="cls-1" width="700" height="700"/>
    </clipPath>
  </defs>
  <title>facebook</title>
  <g class="cls-2">
    <path class="cls-3" d="M600,350c0-138.07-111.93-250-250-250S100,211.93,100,350c0,117.25,80.71,215.62,189.61,242.64V426.4H238.05V350h51.56V317.08c0-85.09,38.5-124.53,122-124.53,15.84,0,43.17,3.1,54.35,6.21V268c-5.9-.62-16.15-.93-28.88-.93-41,0-56.83,15.53-56.83,55.9v27H462l-14,76.4H380.29V598.17C504.07,583.22,600,477.82,600,350" transform="translate(-100 -100)"/>
  </g>
</svg>